<?xml version="1.0" encoding="utf-8"?>
<!-- Generator: Adobe Illustrator 22.1.0, SVG Export Plug-In . SVG Version: 6.00 Build 0)  -->
<svg version="1.1" id="Layer_1" xmlns="http://www.w3.org/2000/svg" xmlns:xlink="http://www.w3.org/1999/xlink" x="0px" y="0px"
	 viewBox="0 0 792 612" style="enable-background:new 0 0 792 612;" xml:space="preserve">
<style type="text/css">
	.st0{fill:#E2E2E2;}
</style>
<path class="st0" d="M383.9,275.9c-0.3-0.3-0.6-0.6-0.9-0.9c0.1-0.1,0.2-0.2,0.3-0.2C383.5,275.2,383.7,275.5,383.9,275.9z"/>
<path class="st0" d="M383,318C383,318,383,318,383,318C383,318,383,318,383,318C383,318,383,318,383,318z"/>
<path class="st0" d="M383.9,275.9c-0.3-0.3-0.6-0.6-0.9-0.9c0.1-0.1,0.2-0.2,0.3-0.2C383.5,275.2,383.7,275.5,383.9,275.9z"/>
<path class="st0" d="M467,295.7c2.5-4.3,4-9.3,4-14.7c0-16-13-29-29-29c-1.9,0-3.8,0.2-5.6,0.5c-3.5-12.2-14.6-21-27.9-21
	c-6.1,0-11.8,1.9-16.4,5.1c-5.3-7.3-13.9-12.1-23.6-12.1c-10.6,0-19.9,5.7-24.9,14.2c-3.4-1.4-7.1-2.2-11.1-2.2
	c-13.4,0-24.7,9.1-28,21.5c-3.3-1.3-6.8-2-10.5-2c-16,0-29,13-29,29c0,12.9,8.4,23.9,20.1,27.6c-0.1,0.8-0.1,1.6-0.1,2.4
	c0,16,13,29,29,29c6,0,11.5-1.8,16.1-4.9c5.1,8,14.2,13.4,24.4,13.4c9.3,0,17.7-4.4,22.9-11.3c4.7,9.6,14.6,16.3,26.1,16.3
	c12.6,0,23.3-8,27.3-19.2c3.7,1.7,7.8,2.7,12.2,2.7c16,0,29-13,29-29C472,306,470.2,300.3,467,295.7z M383,318
	C383,318,383,318,383,318C383,318,383,318,383,318C383,318,383,318,383,318z M383.3,274.8c0.2,0.4,0.4,0.8,0.7,1.1
	c-0.3-0.3-0.6-0.6-0.9-0.9C383.1,275,383.2,274.9,383.3,274.8z M334.6,294.4c0,0,0,0.1,0,0.1c0,0-0.1-0.1-0.1-0.1
	C334.5,294.4,334.5,294.4,334.6,294.4z"/>
<path class="st0" d="M383,318C383,318,383,318,383,318C383,318,383,318,383,318C383,318,383,318,383,318z"/>
</svg>
