<svg id="Layer_1" data-name="Layer 1" xmlns="http://www.w3.org/2000/svg" viewBox="0 0 620.11 398.41"><defs><style>.cls-1{fill:#e2e2e2;}</style></defs><title>cloud</title><path class="cls-1" d="M605.1,213.2A86.85,86.85,0,0,0,530.2,82.3a102.86,102.86,0,0,0-16.8,1.5A86.85,86.85,0,0,0,380.7,36.2a86.91,86.91,0,0,0-145.3,6.3,86.83,86.83,0,0,0-117.1,57.8,85.24,85.24,0,0,0-31.4-6A86.9,86.9,0,0,0,60.2,263.9a57.73,57.73,0,0,0-.3,7.2A87,87,0,0,0,146.8,358,85.54,85.54,0,0,0,195,343.3a86.88,86.88,0,0,0,73.1,40.1,86,86,0,0,0,68.6-33.8,87,87,0,0,0,160-8.7,86.79,86.79,0,0,0,123.4-78.8A85.25,85.25,0,0,0,605.1,213.2Z" transform="translate(0.01 0.01)"/></svg>