<svg id="Layer_1" data-name="Layer 1" xmlns="http://www.w3.org/2000/svg" xmlns:xlink="http://www.w3.org/1999/xlink" viewBox="0 0 390.82 433.76"><defs><style>.cls-1{fill:#414042;}.cls-2{fill:none;}.cls-2,.cls-3,.cls-4,.cls-6{stroke:#231f20;stroke-miterlimit:10;}.cls-2,.cls-3,.cls-6{stroke-width:3.14px;}.cls-3,.cls-4{fill:#9f1d20;}.cls-4{stroke-width:3.27px;}.cls-5{fill:#921a1c;}.cls-6{fill:#7a1315;}.cls-7{fill:#754c29;}</style><symbol id="Brush_Stroke_3" data-name="Brush Stroke 3" viewBox="0 0 8.06 23.69"><path class="cls-1" d="M.46,4.32C.3,10.17,3.64,15.11,7.77,18.69c.92.8-.7,4.39,0,5C.4,17.3-.71,9.27.34,0h0C.36,1.11.46,4.32.46,4.32Z"/></symbol></defs><title>mug</title><path class="cls-2" d="M225,273c5.37,14.83,67.95,26.54,144.37,26.54s139-11.71,144.37-26.54" transform="translate(-124.85 -159.49)"/><path class="cls-3" d="M514.11,276.5V557.75a16.94,16.94,0,0,1-.33,3.36,6.06,6.06,0,0,1,.33,2c0,15.8-64.81,28.61-144.74,28.61s-144.74-12.81-144.74-28.61a6.06,6.06,0,0,1,.33-2,16.94,16.94,0,0,1-.33-3.36V270.88c0-15.79,64.8-28.6,144.74-28.6s144.74,12.81,144.74,28.6Z" transform="translate(-124.85 -159.49)"/><path class="cls-4" d="M154.8,393.46a64.84,64.84,0,0,0,64.83,64.83c1.34,0,2.68,0,4-.12v23.51q-4.2.4-8.51.41a88.64,88.64,0,0,1,0-177.27q4.31,0,8.51.41v23.51c-1.32-.08-2.66-.12-4-.12A64.84,64.84,0,0,0,154.8,393.46Z" transform="translate(-124.85 -159.49)"/><path class="cls-5" d="M240.08,302.22c0,36.58-.75,234.45,8.92,251.11,0,0-2,7.66-6,.66s-16.31-240-7-253.5h0A2.41,2.41,0,0,1,240.08,302.22Z" transform="translate(-124.85 -159.49)"/><path class="cls-6" d="M496.56,270.88c0,2.56-2.67,5-7.57,7.31-17.71,8.25-64.58,14.14-119.62,14.14-55.69,0-103-6-120.24-14.44-4.5-2.2-6.95-4.56-6.95-7,0-11.84,56.94-21.44,127.19-21.44S496.56,259,496.56,270.88Z" transform="translate(-124.85 -159.49)"/><path class="cls-7" d="M487.63,277c-17.53,8.12-63.91,13.92-118.37,13.92-55.1,0-101.94-5.94-119-14.22,18.16-6.52,64.27-11.16,118.29-11.16C423.37,265.5,470,270.27,487.63,277Z" transform="translate(-124.85 -159.49)"/><use id="Brush_Stroke_3-3" data-name="Brush Stroke 3" width="8.06" height="23.69" transform="matrix(2.24, 0.5, -0.52, 2.34, 189.54, -0.17)" xlink:href="#Brush_Stroke_3"/><use width="8.06" height="23.69" transform="matrix(-2.24, -0.5, 0.52, -2.34, 201.15, 105.39)" xlink:href="#Brush_Stroke_3"/><use id="Brush_Stroke_3-8" data-name="Brush Stroke 3" width="8.06" height="23.69" transform="matrix(1.81, 0.51, -0.53, 1.89, 241.11, 10.23)" xlink:href="#Brush_Stroke_3"/><use width="8.06" height="23.69" transform="matrix(-1.81, -0.51, 0.53, -1.89, 245.81, 97.01)" xlink:href="#Brush_Stroke_3"/><use id="Brush_Stroke_3-13" data-name="Brush Stroke 3" width="8.06" height="23.69" transform="translate(303.06 3.29) rotate(30.54) scale(2.3 2.4)" xlink:href="#Brush_Stroke_3"/><use width="8.06" height="23.69" transform="matrix(-1.98, -1.17, 1.22, -2.07, 281.64, 107.31)" xlink:href="#Brush_Stroke_3"/></svg>