<svg xmlns="http://www.w3.org/2000/svg" viewBox="0 0 147.97 252.97"><defs><style>.cls-1{fill:#ddd;}.cls-2{fill:#ededed;}.cls-3{fill:#f9f9f9;}.cls-4{fill:#1e1e1e;}.cls-5{fill:#fff;}.cls-6{fill:none;stroke-linecap:round;stroke-linejoin:round;}.cls-6,.cls-9{stroke:#1e1e1e;}.cls-7{fill:#e58442;}.cls-8{fill:#b06533;}.cls-9{fill:#333;stroke-miterlimit:10;stroke-width:0.25px;}</style></defs><title>decorations</title><g id="Body"><ellipse class="cls-1" cx="75.31" cy="245.97" rx="46.5" ry="7"/><circle class="cls-2" cx="75.81" cy="190.97" r="59"/><circle class="cls-1" cx="74.81" cy="130.97" r="44"/><circle class="cls-2" cx="74.81" cy="128.97" r="44"/><circle class="cls-1" cx="74.81" cy="75.97" r="35"/><circle class="cls-3" cx="74.81" cy="72.97" r="35"/><circle class="cls-2" cx="74.81" cy="73.97" r="35"/></g><g id="eyes"><g id="left"><circle class="cls-4" cx="69.06" cy="67.22" r="4"/><path class="cls-5" d="M297.05,201c-.55.07-1.07-.55-1.16-1.37s.05-1.51.82-1.61,1.07.56,1.17,1.38S297.6,200.9,297.05,201Z" transform="translate(-225.57 -132.43)"/><ellipse class="cls-2" cx="296.74" cy="199.51" rx="1" ry="1.5" transform="translate(-246.27 -97.5) rotate(-6.51)"/></g><g id="right"><circle class="cls-4" cx="85.56" cy="67.22" r="4"/><path class="cls-5" d="M313.55,201c-.55.07-1.07-.55-1.16-1.37s.05-1.51.82-1.61,1.07.56,1.17,1.38S314.1,200.9,313.55,201Z" transform="translate(-225.57 -132.43)"/><ellipse class="cls-2" cx="313.24" cy="199.51" rx="1" ry="1.5" transform="translate(-246.17 -95.63) rotate(-6.51)"/></g></g><g id="Buttons"><circle id="top" class="cls-4" cx="77.06" cy="125.22" r="2.96"/><circle id="top-2" data-name="top" class="cls-4" cx="77.13" cy="135.28" r="2.96"/><circle id="top-3" data-name="top" class="cls-4" cx="77.19" cy="145.34" r="2.96"/><path class="cls-6" d="M301.26,223.65a14,14,0,0,1-14.38-5.5" transform="translate(-225.57 -132.43)"/><polygon class="cls-4" points="147.97 90.91 137.17 101.09 136.53 101.69 128.38 106 128.49 108.34 120.73 116.38 119.35 115.45 111.49 123.54 110.41 122.6 119.12 113.65 120.5 114.58 127.04 107.81 126.89 105.21 135.72 100.54 135.72 100.53 135.58 89.52 137.03 89.54 137.15 99.19 146.94 89.94 147.97 90.91"/><polygon class="cls-4" points="0.83 157.44 12.22 147.96 12.89 147.4 18.13 139.84 20.44 140.23 29.34 133.51 28.59 132.02 37.54 125.2 36.74 124.03 26.83 131.59 27.58 133.06 20.09 138.73 17.53 138.27 11.85 146.46 11.83 146.46 0.94 145 0.79 146.44 10.34 147.71 0 156.31 0.83 157.44"/></g><g id="Carrot_nose" data-name="Carrot nose"><g id="carrot_shadow" data-name="carrot shadow"><path class="cls-1" d="M335.47,211.27c-.62.15-2.09,1.23-3.22,1.39l-.68.14c-1.34.18-3.18.48-4.94.66l-.53,0-4.72.45c-.18,0-.36,0-.55.06l-4.7.41-.54,0-4.69.37-.55,0-4.67.36h0l-.56,0-1,.07a2.67,2.67,0,0,1-2.87-2.65V210a.85.85,0,0,1,.9-.84l2.47.1.55,0,4.77.21.53,0,4.78.2a4.75,4.75,0,0,1,.54,0l4.78.18.53,0,4.78.17.55,0,4.79.19.55,0c2.13.09,2.37.63,3.44.73.2,0,.34,0,.5.05" transform="translate(-225.57 -132.43)"/><path class="cls-1" d="M305.67,215.24l-.56,0a15.61,15.61,0,0,1-.48-6l.55,0A15,15,0,0,0,305.67,215.24Z" transform="translate(-225.57 -132.43)"/><path class="cls-1" d="M310.9,214.84l-.55,0a15.24,15.24,0,0,1-.4-5.36l.53,0A15.1,15.1,0,0,0,310.9,214.84Z" transform="translate(-225.57 -132.43)"/><path class="cls-1" d="M316.13,214.43l-.54,0a16,16,0,0,1-.33-4.73,4.75,4.75,0,0,1,.54,0A15.12,15.12,0,0,0,316.13,214.43Z" transform="translate(-225.57 -132.43)"/><path class="cls-1" d="M321.38,214c-.18,0-.36,0-.55.06a16.32,16.32,0,0,1-.25-4.07l.53,0A16.12,16.12,0,0,0,321.38,214Z" transform="translate(-225.57 -132.43)"/><path class="cls-1" d="M326.63,213.46l-.53,0a17.51,17.51,0,0,1-.21-3.37l.55,0A16.58,16.58,0,0,0,326.63,213.46Z" transform="translate(-225.57 -132.43)"/></g><g id="carrot"><path class="cls-7" d="M335.79,211.5l-.5.15-1.91.5c-.57.14-1.42.29-2.47.44l-.51.07c-1.25.17-2.75.35-4.39.52l-.5,0-4.39.42-.51,0-4.38.38-.5,0-4.37.35-.51,0-4.35.34h0l-.52,0-.92.07a2.48,2.48,0,0,1-2.67-2.47V210a.8.8,0,0,1,.84-.79l2.3.1.51,0,4.44.19.5,0,4.45.19.5,0,4.45.17.5,0,4.45.16.51,0,4.46.17.51,0c2,.09,3.46.17,4.45.27l.51.06C337.23,210.82,337.15,211.07,335.79,211.5Z" transform="translate(-225.57 -132.43)"/><path class="cls-8" d="M306.49,214.84l-.52,0a14.54,14.54,0,0,1-.45-5.59l.51,0A13.94,13.94,0,0,0,306.49,214.84Z" transform="translate(-225.57 -132.43)"/><path class="cls-8" d="M311.36,214.47l-.51,0a14.28,14.28,0,0,1-.38-5l.5,0A14,14,0,0,0,311.36,214.47Z" transform="translate(-225.57 -132.43)"/><path class="cls-8" d="M316.23,214.08l-.5,0a14.72,14.72,0,0,1-.31-4.4l.5,0A14.24,14.24,0,0,0,316.23,214.08Z" transform="translate(-225.57 -132.43)"/><path class="cls-8" d="M321.12,213.65l-.51,0a15.46,15.46,0,0,1-.24-3.79l.5,0A14.84,14.84,0,0,0,321.12,213.65Z" transform="translate(-225.57 -132.43)"/><path class="cls-8" d="M326,213.18l-.5,0a16.65,16.65,0,0,1-.19-3.14l.51,0A15,15,0,0,0,326,213.18Z" transform="translate(-225.57 -132.43)"/><path class="cls-8" d="M330.91,212.59l-.51.07a16.48,16.48,0,0,1-.11-2.38l.51,0A14,14,0,0,0,330.91,212.59Z" transform="translate(-225.57 -132.43)"/><path class="cls-8" d="M335.79,211.5l-.5.15c0-.38,0-.74,0-1.08l.51.06Q335.76,211.05,335.79,211.5Z" transform="translate(-225.57 -132.43)"/></g></g><g id="top_hat" data-name="top hat"><rect class="cls-4" x="52.54" y="4.06" width="44.56" height="37.17"/><path class="cls-9" d="M322.49,136.5c0-2.18-10.15-3.95-22.27-3.95s-22,1.77-22,3.95,9.83,3.95,22,3.95S322.49,138.68,322.49,136.5Z" transform="translate(-225.57 -132.43)"/><ellipse class="cls-9" cx="74.81" cy="45.53" rx="36.83" ry="4.01"/><ellipse class="cls-4" cx="74.81" cy="41.97" rx="22.28" ry="4.01"/></g></svg>