<svg id="Layer_1" data-name="Layer 1" xmlns="http://www.w3.org/2000/svg" viewBox="0 0 122.75 134.53"><defs><style>.cls-1{fill:#ddd;}.cls-2{fill:#ededed;}</style></defs><title>Snowflake</title><g id="shadow"><g id="right"><rect class="cls-1" x="145.23" y="107.38" width="31.79" height="3.69" transform="translate(-106.61 105.08) rotate(-60)"/></g><g id="left"><rect class="cls-1" x="143.95" y="93.33" width="3.69" height="31.79" transform="translate(-127.66 -1.54) rotate(-30)"/></g><g id="Long"><rect class="cls-1" x="58.75" y="0.57" width="4.54" height="66.7"/></g><g id="right-2" data-name="right"><rect class="cls-1" x="114.37" y="110.33" width="3.69" height="31.79" transform="translate(-140.12 -14.05) rotate(-30)"/></g><g id="left-2" data-name="left"><rect class="cls-1" x="0.07" y="48.58" width="31.79" height="3.69"/></g><g id="Long-2" data-name="Long"><rect class="cls-1" x="122.1" y="106.27" width="4.54" height="66.7" transform="translate(-151.31 88.45) rotate(-60)"/></g><g id="right-3" data-name="right"><rect class="cls-1" y="82.7" width="31.79" height="3.69"/></g><g id="left-3" data-name="left"><rect class="cls-1" x="100.25" y="185.05" width="31.79" height="3.69" transform="translate(-196.37 104.96) rotate(-60)"/></g><g id="Long-3" data-name="Long"><rect class="cls-1" x="90.81" y="170.98" width="66.7" height="4.54" transform="translate(-162.57 -3.78) rotate(-30)"/></g><g id="right-4" data-name="right"><rect class="cls-1" x="129.76" y="202.17" width="31.79" height="3.69" transform="matrix(0.5, -0.87, 0.87, 0.5, -196.44, 139.08)"/></g><g id="left-4" data-name="left"><rect class="cls-1" x="159.14" y="188.12" width="3.69" height="31.79" transform="translate(-173.02 18.75) rotate(-30)"/></g><g id="Long-4" data-name="Long"><rect class="cls-1" x="58.32" y="67.83" width="4.54" height="66.7"/></g><g id="right-5" data-name="right"><rect class="cls-1" x="188.73" y="171.12" width="3.69" height="31.79" transform="translate(-160.56 31.27) rotate(-30)"/></g><g id="left-5" data-name="left"><rect class="cls-1" x="89.76" y="82.83" width="31.79" height="3.69"/></g><g id="Long-5" data-name="Long"><rect class="cls-1" x="180.14" y="140.27" width="4.54" height="66.7" transform="translate(-151.74 155.71) rotate(-60)"/></g><g id="right-6" data-name="right"><rect class="cls-1" x="89.83" y="48.7" width="31.79" height="3.69"/></g><g id="left-6" data-name="left"><rect class="cls-1" x="174.75" y="124.5" width="31.79" height="3.69" transform="translate(-106.68 139.2) rotate(-60)"/></g><g id="Long-6" data-name="Long"><rect class="cls-1" x="149.28" y="137.72" width="66.7" height="4.54" transform="translate(-138.11 21) rotate(-30)"/></g></g><g id="snowflake"><rect id="right-7" data-name="right" class="cls-2" x="160.42" y="92.76" width="3.69" height="31.79" transform="translate(155.87 194.81) rotate(-150)"/><rect id="left-7" data-name="left" class="cls-2" x="145.09" y="92.76" width="3.69" height="31.79" transform="translate(-127.22 -1.05) rotate(-30)"/><g id="Long-7" data-name="Long"><rect class="cls-2" x="59.88" width="4.54" height="66.7"/></g><rect id="right-8" data-name="right" class="cls-2" x="115.5" y="109.76" width="3.69" height="31.79" transform="translate(189.21 86.73) rotate(150)"/><rect id="left-8" data-name="left" class="cls-2" x="107.84" y="123.03" width="3.69" height="31.79" transform="translate(-121.83 159.54) rotate(-90)"/><g id="Long-8" data-name="Long"><rect class="cls-2" x="123.24" y="105.7" width="4.54" height="66.7" transform="translate(-150.25 89.15) rotate(-60)"/></g><rect id="right-9" data-name="right" class="cls-2" x="107.77" y="157.16" width="3.69" height="31.79" transform="translate(190.08 -25.63) rotate(90)"/><rect id="left-9" data-name="left" class="cls-2" x="115.43" y="170.43" width="3.69" height="31.79" transform="translate(33.09 317.25) rotate(-150)"/><g id="Long-9" data-name="Long"><rect class="cls-2" x="91.95" y="170.41" width="66.7" height="4.54" transform="translate(-162.14 -3.29) rotate(-30)"/></g><rect id="right-10" data-name="right" class="cls-2" x="144.95" y="187.55" width="3.69" height="31.79" transform="matrix(0.87, 0.5, -0.5, 0.87, 28.81, -135.21)"/><rect id="left-10" data-name="left" class="cls-2" x="160.27" y="187.55" width="3.69" height="31.79" transform="translate(311.66 209.51) rotate(150)"/><g id="Long-10" data-name="Long"><rect class="cls-2" x="59.46" y="67.26" width="4.54" height="66.7"/></g><rect id="right-11" data-name="right" class="cls-2" x="189.86" y="170.55" width="3.69" height="31.79" transform="translate(-160.12 31.76) rotate(-30)"/><rect id="left-11" data-name="left" class="cls-2" x="197.52" y="157.28" width="3.69" height="31.79" transform="translate(279.96 -115.27) rotate(90)"/><g id="Long-11" data-name="Long"><rect class="cls-2" x="181.28" y="139.7" width="4.54" height="66.7" transform="translate(-150.68 156.41) rotate(-60)"/></g><rect id="right-12" data-name="right" class="cls-2" x="197.59" y="123.16" width="3.69" height="31.79" transform="translate(-32.19 249.42) rotate(-90)"/><rect id="left-12" data-name="left" class="cls-2" x="189.93" y="109.88" width="3.69" height="31.79" transform="translate(-4 -168.11) rotate(30)"/><g id="Long-12" data-name="Long"><rect class="cls-2" x="150.41" y="137.15" width="66.7" height="4.54" transform="translate(-137.67 21.49) rotate(-30)"/></g></g></svg>